<svg width="720" height="1024" viewBox="0 0 720 1024" fill="none" xmlns="http://www.w3.org/2000/svg">
<g clip-path="url(#clip0_402_49307)">
<path d="M851.045 -236.614C753.838 -361.398 572.527 -340.05 446.06 -188.93C319.593 -37.8105 295.871 185.842 393.066 310.626C490.272 435.41 671.583 414.062 798.051 262.942C924.518 111.822 948.24 -111.831 851.045 -236.614Z" stroke="#1637C4" stroke-width="0.25" stroke-miterlimit="10"/>
<path d="M852.707 -219.787C758.814 -347.299 578.955 -331.045 450.966 -183.485C322.976 -35.9252 295.332 187.072 389.225 314.584C483.118 442.096 662.978 425.842 790.967 278.282C918.956 130.722 946.601 -92.2746 852.707 -219.787Z" stroke="#1637C4" stroke-width="0.25" stroke-miterlimit="10"/>
<path d="M852.297 -204.177C760.898 -332.825 582.749 -319.815 454.373 -175.124C326.009 -30.4331 296.034 191.147 387.434 319.795C478.833 448.443 656.994 435.445 785.358 290.754C913.722 146.063 943.697 -75.5173 852.297 -204.165V-204.177Z" stroke="#1637C4" stroke-width="0.25" stroke-miterlimit="10"/>
<path d="M828.388 -190.324C735.689 -303.515 566.696 -279.532 450.931 -136.738C335.165 6.04409 316.478 213.56 409.177 326.751C501.876 439.941 670.869 415.959 786.634 273.165C902.4 130.383 921.087 -77.1333 828.388 -190.324Z" stroke="#1637C4" stroke-width="0.25" stroke-miterlimit="10"/>
<path d="M829.348 -182.712C735.619 -296.98 564.869 -272.611 447.98 -128.283C331.091 16.0446 312.31 225.68 406.039 339.948C499.768 454.216 670.518 429.847 787.407 285.519C904.308 141.191 923.077 -68.4444 829.348 -182.712Z" stroke="#1637C4" stroke-width="0.25" stroke-miterlimit="10"/>
<path d="M813.295 -162.735C722.095 -267.798 560.092 -240.268 451.457 -101.233C342.823 37.8021 328.69 235.692 419.902 340.756C511.102 445.82 673.106 418.289 781.74 279.254C890.375 140.219 904.507 -57.671 813.295 -162.735Z" stroke="#1637C4" stroke-width="0.25" stroke-miterlimit="10"/>
<path d="M822.815 -139.9C738.687 -253.934 577.655 -239.226 463.166 -107.041C348.666 25.1317 324.054 224.732 408.182 338.765C492.31 452.799 653.341 438.091 767.83 305.907C882.331 173.734 906.943 -25.8661 822.815 -139.9Z" stroke="#1637C4" stroke-width="0.25" stroke-miterlimit="10"/>
<path d="M811.844 -131.574C725.503 -238.464 567.117 -217.047 458.073 -83.7261C349.029 49.5943 330.622 244.323 416.963 351.225C503.304 458.116 661.69 436.698 770.734 303.377C879.778 170.057 898.184 -24.6717 811.844 -131.574Z" stroke="#1637C4" stroke-width="0.25" stroke-miterlimit="10"/>
<path d="M812.394 -109.243C731.767 -218.791 577.269 -204.856 467.311 -78.117C357.365 48.6223 333.596 240.166 414.223 349.714C494.85 459.263 649.348 445.328 759.306 318.589C869.252 191.85 893.021 0.30612 812.394 -109.243Z" stroke="#1637C4" stroke-width="0.25" stroke-miterlimit="10"/>
<path d="M798.765 -101.432C715.351 -201.917 564.213 -179.48 461.199 -51.3123C358.173 76.8556 342.273 262.216 425.686 362.701C509.1 463.186 660.238 440.749 763.252 312.581C866.278 184.414 882.178 -0.94687 798.765 -101.432Z" stroke="#1637C4" stroke-width="0.25" stroke-miterlimit="10"/>
<path d="M796.142 -68.8074C722.786 -171.037 580.489 -159.959 478.306 -44.0638C376.134 71.8319 352.775 248.656 426.131 350.886C499.487 453.115 641.784 442.038 743.967 326.142C846.139 210.246 869.498 33.4225 796.142 -68.8074Z" stroke="#1637C4" stroke-width="0.25" stroke-miterlimit="10"/>
<path d="M791.072 -69.5568C712.061 -167.618 566.965 -148.156 466.983 -26.1003C367.002 95.9549 350 274.395 429 372.444C508.011 470.505 653.107 451.043 753.089 328.987C853.07 206.932 870.072 28.4925 791.072 -69.5568Z" stroke="#1637C4" stroke-width="0.25" stroke-miterlimit="10"/>
<path d="M784.773 -46.1364C711.112 -142.207 572.679 -126.972 475.578 -12.1067C378.476 102.758 359.473 273.762 433.133 369.833C506.793 465.903 645.227 450.668 742.328 335.803C839.43 220.938 858.433 49.9339 784.773 -46.1364Z" stroke="#1637C4" stroke-width="0.25" stroke-miterlimit="10"/>
<path d="M783.777 -30.6556C712.471 -127.44 575.899 -115.051 478.739 -2.98443C381.579 109.082 360.632 278.388 431.939 375.161C503.246 471.945 639.817 459.556 736.977 347.49C834.137 235.423 855.084 66.1173 783.777 -30.6556Z" stroke="#1637C4" stroke-width="0.25" stroke-miterlimit="10"/>
<path d="M766.109 -12.6804C696.195 -98.8908 568.171 -81.3138 480.167 26.5721C392.164 134.458 377.493 291.796 447.418 378.006C517.331 464.217 645.356 446.64 733.359 338.754C821.363 230.868 836.034 73.5299 766.109 -12.6804Z" stroke="#1637C4" stroke-width="0.25" stroke-miterlimit="10"/>
<path d="M757.152 -0.115467C687.238 -81.1148 562.738 -60.2941 479.079 46.3974C395.419 153.089 384.284 305.239 454.197 386.239C524.111 467.238 648.611 446.417 732.27 339.726C815.93 233.034 827.065 80.8838 757.152 -0.115467Z" stroke="#1637C4" stroke-width="0.25" stroke-miterlimit="10"/>
<path d="M757.163 12.0748C688.21 -69.9198 564.003 -50.7034 479.734 55.0044C395.466 160.712 383.054 312.863 452.008 394.857C520.961 476.852 645.168 457.636 729.437 351.928C813.705 246.22 826.117 94.0695 757.163 12.0748Z" stroke="#1637C4" stroke-width="0.25" stroke-miterlimit="10"/>
<path d="M753.463 30.1202C687.706 -51.0313 567.246 -34.5434 484.418 66.937C401.59 168.417 387.75 316.469 453.506 397.621C519.263 478.772 639.724 462.284 722.552 360.804C805.38 259.324 819.22 111.272 753.463 30.1202Z" stroke="#1637C4" stroke-width="0.25" stroke-miterlimit="10"/>
<path d="M751.274 46.0695C687.929 -35.0235 569.927 -20.9713 487.708 77.4528C405.489 175.877 390.173 321.388 453.507 402.481C516.851 483.574 634.853 469.521 717.072 371.097C799.292 272.673 814.607 127.162 751.274 46.0695Z" stroke="#1637C4" stroke-width="0.25" stroke-miterlimit="10"/>
<path d="M744.658 59.0093C681.782 -18.559 566.637 -2.78535 487.462 94.2335C408.287 191.252 395.068 332.782 457.944 410.35C520.821 487.918 635.965 472.144 715.14 375.126C794.315 278.107 807.535 136.578 744.658 59.0093Z" stroke="#1637C4" stroke-width="0.25" stroke-miterlimit="10"/>
<path d="M732.891 80.1696C673.632 8.6789 566.181 24.5579 492.907 115.64C419.633 206.721 408.275 338.508 467.534 409.999C526.792 481.489 634.244 465.61 707.518 374.528C780.792 283.447 792.149 151.66 732.891 80.1696Z" stroke="#1637C4" stroke-width="0.25" stroke-miterlimit="10"/>
<path d="M727.2 97.8285C670.705 28.6214 567.562 43.0951 496.829 130.172C426.096 217.249 414.551 343.93 471.046 413.137C527.541 482.344 630.684 467.87 701.417 380.793C772.151 293.716 783.695 167.036 727.2 97.8285Z" stroke="#1637C4" stroke-width="0.25" stroke-miterlimit="10"/>
<path d="M725.116 120.429C674.124 50.3671 575.876 58.7048 505.693 139.037C435.51 219.368 419.949 341.295 470.953 411.357C521.945 481.419 620.193 473.081 690.376 392.749C760.559 312.418 776.12 190.491 725.116 120.429Z" stroke="#1637C4" stroke-width="0.25" stroke-miterlimit="10"/>
<path d="M717.611 130.383C665.6 64.8409 569.401 77.0312 502.754 157.621C436.107 238.21 424.246 356.659 476.257 422.2C528.267 487.742 624.467 475.552 691.114 394.963C757.76 314.373 769.622 195.925 717.611 130.383Z" stroke="#1637C4" stroke-width="0.25" stroke-miterlimit="10"/>
<path d="M713.173 147.866C663.996 83.7529 571.602 93.9407 506.805 170.607C442.008 247.274 429.339 361.401 478.505 425.514C527.682 489.628 620.076 479.44 684.873 402.773C749.67 326.107 762.339 211.979 713.173 147.866Z" stroke="#1637C4" stroke-width="0.25" stroke-miterlimit="10"/>
<path d="M708.256 161.356C660.015 99.5148 570.103 110.159 507.414 185.128C444.725 260.096 433.004 371.004 481.245 432.845C529.485 494.687 619.397 484.042 682.086 409.073C744.775 334.105 756.496 223.198 708.256 161.356Z" stroke="#1637C4" stroke-width="0.25" stroke-miterlimit="10"/>
<path d="M702.612 180.795C657.966 120.98 572.995 129.223 512.812 199.204C452.64 269.184 440.041 374.4 484.687 434.215C529.333 494.031 614.304 485.787 674.487 415.807C734.659 345.827 747.258 240.611 702.612 180.795Z" stroke="#1637C4" stroke-width="0.25" stroke-miterlimit="10"/>
<path d="M696.195 190.011C650.332 134.06 566.743 145.957 509.51 216.593C452.277 287.229 443.062 389.857 488.926 445.808C534.789 501.759 618.379 489.862 675.611 419.226C732.844 348.59 742.059 245.962 696.195 190.011Z" stroke="#1637C4" stroke-width="0.25" stroke-miterlimit="10"/>
<path d="M690.236 206.499C646.562 153.159 566.93 164.471 512.39 231.746C457.85 299.021 449.034 396.801 492.719 450.129C536.393 503.469 616.025 492.157 670.565 424.882C725.105 357.607 733.921 259.827 690.236 206.499Z" stroke="#1637C4" stroke-width="0.25" stroke-miterlimit="10"/>
<path d="M685.365 223.479C644.243 171.942 568.382 181.744 515.926 245.388C463.471 309.033 454.279 402.41 495.389 453.947C536.51 505.483 612.372 495.682 664.827 432.037C717.283 368.392 726.474 275.015 685.365 223.479Z" stroke="#1637C4" stroke-width="0.25" stroke-miterlimit="10"/>
<path d="M682.906 243.609C646.093 191.791 574.342 197.014 522.635 255.284C470.929 313.553 458.846 402.808 495.658 454.626C532.471 506.444 604.223 501.221 655.929 442.951C707.635 384.681 719.718 295.426 682.906 243.609Z" stroke="#1637C4" stroke-width="0.25" stroke-miterlimit="10"/>
<path d="M673.141 256.513C636.387 210.422 568.557 219.169 521.64 276.057C474.723 332.945 466.492 416.439 503.246 462.542C540 508.633 607.829 499.886 654.746 442.998C701.663 386.11 709.895 302.616 673.141 256.513Z" stroke="#1637C4" stroke-width="0.25" stroke-miterlimit="10"/>
<path d="M665.53 271.994C630.286 229.791 566.602 239.428 523.291 293.517C479.98 347.607 473.435 425.667 508.679 467.87C543.922 510.074 607.606 500.436 650.917 446.347C694.228 392.258 700.774 314.198 665.53 271.994Z" stroke="#1637C4" stroke-width="0.25" stroke-miterlimit="10"/>
<path d="M661.795 290.449C629.935 249.066 570.173 255.764 528.326 305.415C486.479 355.054 478.376 428.84 510.236 470.224C542.095 511.608 601.857 504.91 643.705 455.258C685.552 405.619 693.655 331.833 661.795 290.449Z" stroke="#1637C4" stroke-width="0.25" stroke-miterlimit="10"/>
<path d="M655.425 304.794C624.713 266.596 568.241 274.102 529.309 321.575C490.366 369.048 483.704 438.489 514.416 476.7C545.128 514.898 601.6 507.392 640.532 459.919C679.475 412.446 686.138 343.005 655.425 304.794Z" stroke="#1637C4" stroke-width="0.25" stroke-miterlimit="10"/>
<path d="M648.049 319.889C618.706 285.461 566.157 293.939 530.691 338.812C495.225 383.686 490.26 447.975 519.603 482.403C548.945 516.831 601.494 508.352 636.96 463.479C672.426 418.605 677.391 354.317 648.049 319.889Z" stroke="#1637C4" stroke-width="0.25" stroke-miterlimit="10"/>
<path d="M646.585 339.374C621.388 304.056 572.363 307.745 537.108 347.607C501.841 387.468 493.691 448.408 518.889 483.726C544.086 519.044 593.111 515.355 628.366 475.494C663.633 435.632 671.782 374.692 646.585 339.374Z" stroke="#1637C4" stroke-width="0.25" stroke-miterlimit="10"/>
<path d="M639.162 353.965C615.088 322.524 569.81 327.477 538.044 365.031C506.278 402.586 500.037 458.514 524.111 489.944C548.184 521.386 593.462 516.432 625.228 478.878C656.994 441.323 663.235 385.395 639.162 353.965Z" stroke="#1637C4" stroke-width="0.25" stroke-miterlimit="10"/>
<path d="M633.12 365.793C609.082 337.618 566.052 344.574 537.014 381.332C507.976 418.09 503.925 470.727 527.975 498.902C552.013 527.077 595.043 520.121 624.081 483.363C653.119 446.605 657.17 393.967 633.12 365.793Z" stroke="#1637C4" stroke-width="0.25" stroke-miterlimit="10"/>
<path d="M625.451 383.908C604.129 359.34 566.263 365.769 540.854 398.277C515.458 430.784 512.144 477.039 533.466 501.607C554.788 526.175 592.654 519.746 618.062 487.239C643.459 454.731 646.773 408.476 625.451 383.908Z" stroke="#1637C4" stroke-width="0.25" stroke-miterlimit="10"/>
<path d="M620.17 399.975C600.932 377.608 566.614 383.288 543.536 412.668C520.446 442.049 517.331 483.995 536.569 506.361C555.807 528.728 590.125 523.049 613.203 493.668C636.293 464.287 639.408 422.341 620.17 399.975Z" stroke="#1637C4" stroke-width="0.25" stroke-miterlimit="10"/>
<path d="M616.482 415.748C599.399 394.494 567.984 398.686 546.322 425.093C524.661 451.499 520.961 490.131 538.044 511.385C555.127 532.639 586.542 528.447 608.204 502.041C629.865 475.634 633.565 437.002 616.482 415.748Z" stroke="#1637C4" stroke-width="0.25" stroke-miterlimit="10"/>
<path d="M612.313 433.056C598.017 413.078 570.244 415.21 550.292 437.81C530.34 460.411 525.75 494.933 540.046 514.898C554.343 534.876 582.116 532.745 602.068 510.144C622.02 487.543 626.61 453.022 612.313 433.056Z" stroke="#1637C4" stroke-width="0.25" stroke-miterlimit="10"/>
<path d="M604.211 447.694C590.98 432.06 567.223 435.808 551.135 456.066C535.047 476.325 532.74 505.413 545.971 521.046C559.202 536.679 582.959 532.932 599.047 512.673C615.135 492.415 617.442 463.327 604.211 447.694Z" stroke="#1637C4" stroke-width="0.25" stroke-miterlimit="10"/>
<path d="M599.843 465.833C589.762 451.499 570.021 452.846 555.736 468.83C541.463 484.815 538.056 509.394 548.137 523.728C558.219 538.061 577.96 536.714 592.244 520.73C606.517 504.746 609.925 480.166 599.843 465.833Z" stroke="#1637C4" stroke-width="0.25" stroke-miterlimit="10"/>
<path d="M593.661 481.091C585.172 469.685 569.002 471.231 557.539 484.545C546.076 497.848 543.653 517.884 552.142 529.29C560.631 540.696 576.8 539.15 588.263 525.836C599.726 512.533 602.15 492.497 593.661 481.091Z" stroke="#1637C4" stroke-width="0.25" stroke-miterlimit="10"/>
<path d="M587.069 496.314C580.114 488.129 567.644 490.12 559.214 500.776C550.783 511.42 549.589 526.69 556.556 534.876C563.511 543.061 575.981 541.071 584.411 530.414C592.842 519.77 594.036 504.5 587.069 496.314Z" stroke="#1637C4" stroke-width="0.25" stroke-miterlimit="10"/>
<path d="M416.261 359.984C333.105 263.223 184.73 287.733 84.8773 414.718C-14.9756 541.715 -28.511 723.105 54.6451 819.878C137.801 916.64 286.176 892.13 386.029 765.145C485.881 638.148 499.417 456.757 416.261 359.984Z" stroke="#1637C4" stroke-width="0.25" stroke-miterlimit="10"/>
<path d="M422.642 381.988C349.872 283.353 210.607 296.082 111.573 410.397C12.5402 524.723 -8.74647 697.355 64.0122 795.989C136.783 894.624 276.047 881.895 375.081 767.581C474.114 653.254 495.401 480.623 422.642 381.999V381.988Z" stroke="#1637C4" stroke-width="0.25" stroke-miterlimit="10"/>
<path d="M429.773 372.268C352.857 275.273 210.56 293.248 111.948 412.422C13.3363 531.597 -4.26203 706.84 72.6533 803.835C149.569 900.831 291.866 882.856 390.478 763.681C489.09 644.507 506.688 469.264 429.773 372.268Z" stroke="#1637C4" stroke-width="0.25" stroke-miterlimit="10"/>
<path d="M438.437 383.721C367.341 284.618 229.411 295.344 130.366 407.668C31.3211 519.992 8.66454 691.394 79.7723 790.497C150.868 889.601 288.798 878.874 387.843 766.55C486.888 654.226 509.545 482.824 438.437 383.721Z" stroke="#1637C4" stroke-width="0.25" stroke-miterlimit="10"/>
<path d="M439.854 387.339C370.034 292.159 236.038 304.021 140.565 413.828C45.0907 523.634 24.2841 689.813 94.1039 785.005C163.924 880.186 297.92 868.323 393.393 758.517C488.867 648.71 509.674 482.531 439.854 387.339Z" stroke="#1637C4" stroke-width="0.25" stroke-miterlimit="10"/>
<path d="M440.404 392.164C372.317 301.363 243.017 314.174 151.594 420.807C60.1717 527.428 41.2385 687.483 109.325 778.284C177.412 869.084 306.713 856.274 398.135 749.641C489.558 643.019 508.491 482.965 440.404 392.164Z" stroke="#1637C4" stroke-width="0.25" stroke-miterlimit="10"/>
<path d="M444.327 394.33C377.177 305.895 250.405 319.245 161.16 424.144C71.9274 529.056 54.0246 685.797 121.175 774.232C188.325 862.667 315.096 849.318 404.341 744.418C493.574 639.506 511.477 482.766 444.327 394.33Z" stroke="#1637C4" stroke-width="0.25" stroke-miterlimit="10"/>
<path d="M444.619 405.9C382.282 321.153 262.793 331.903 177.752 429.894C92.6988 527.897 74.2925 676.03 136.642 760.777C198.992 845.523 318.469 834.774 403.51 736.783C488.563 638.78 506.969 490.646 444.619 405.9Z" stroke="#1637C4" stroke-width="0.25" stroke-miterlimit="10"/>
<path d="M446.879 410.057C386.181 328.578 270.544 339.702 188.594 434.883C106.656 530.063 89.432 673.279 150.131 754.746C210.829 836.226 326.466 825.101 408.416 729.921C490.354 634.74 507.578 491.525 446.879 410.057Z" stroke="#1637C4" stroke-width="0.25" stroke-miterlimit="10"/>
<path d="M445.345 403.769C380.982 329.526 266.598 348.906 189.859 447.038C113.119 545.181 103.085 684.918 167.448 759.149C231.811 833.392 346.195 814.011 422.935 715.88C499.674 617.737 509.709 478 445.345 403.769Z" stroke="#1637C4" stroke-width="0.25" stroke-miterlimit="10"/>
<path d="M452.453 416.615C394.353 341.178 285.391 353.403 209.085 443.923C132.778 534.443 118.013 668.993 176.124 744.43C234.223 819.867 343.186 807.641 419.492 717.121C495.799 626.602 510.564 492.052 452.453 416.615Z" stroke="#1637C4" stroke-width="0.25" stroke-miterlimit="10"/>
<path d="M459.981 419.823C403.744 344.105 296.456 354.246 220.337 442.471C144.218 530.707 128.106 663.618 184.332 739.336C240.57 815.054 347.858 804.913 423.977 716.688C500.096 628.452 516.207 495.541 459.981 419.823Z" stroke="#1637C4" stroke-width="0.25" stroke-miterlimit="10"/>
<path d="M459.045 416.755C400.711 347.443 295.671 363.732 224.423 453.139C153.175 542.546 142.707 671.218 201.041 740.53C259.374 809.843 364.414 793.554 435.662 704.147C506.91 614.739 517.378 486.068 459.045 416.755Z" stroke="#1637C4" stroke-width="0.25" stroke-miterlimit="10"/>
<path d="M463.728 420.69C407.245 352.982 305.132 368.381 235.652 455.094C166.172 541.808 155.634 666.99 212.117 734.698C268.601 802.407 370.713 787.008 440.193 700.294C509.674 613.58 520.212 488.398 463.728 420.69Z" stroke="#1637C4" stroke-width="0.25" stroke-miterlimit="10"/>
<path d="M468.213 435.269C418.45 367.959 323.316 376.753 255.709 454.895C188.102 533.037 173.642 650.947 223.404 718.257C273.167 785.567 368.301 776.773 435.908 698.631C503.515 620.489 517.975 502.579 468.213 435.269Z" stroke="#1637C4" stroke-width="0.25" stroke-miterlimit="10"/>
<path d="M473.985 431.44C422.63 365.968 327.133 377.538 260.697 457.272C194.261 537.007 182.037 654.73 233.392 720.201C284.747 785.673 380.244 774.103 446.68 694.369C513.116 614.634 525.34 496.911 473.985 431.44Z" stroke="#1637C4" stroke-width="0.25" stroke-miterlimit="10"/>
<path d="M474.348 433.278C423.321 372.69 331.465 386.976 269.174 465.177C206.895 543.377 197.762 655.889 248.801 716.477C299.828 777.066 391.684 762.779 453.975 684.579C516.254 606.378 525.387 493.867 474.348 433.278Z" stroke="#1637C4" stroke-width="0.25" stroke-miterlimit="10"/>
<path d="M477.381 442.084C430.241 383.639 343.701 395.291 284.091 468.104C224.482 540.918 214.389 647.329 261.529 705.774C308.668 764.22 395.208 752.568 454.818 679.754C514.428 606.94 524.521 500.53 477.381 442.084Z" stroke="#1637C4" stroke-width="0.25" stroke-miterlimit="10"/>
<path d="M481.502 448.057C437.067 391.356 354.415 401.321 296.889 470.329C239.364 539.326 228.744 641.228 273.179 697.928C317.614 754.629 400.266 744.664 457.792 675.656C515.317 606.659 525.937 504.757 481.502 448.057Z" stroke="#1637C4" stroke-width="0.25" stroke-miterlimit="10"/>
<path d="M483.504 450.258C439.772 397.258 360.328 408.816 306.045 476.091C251.763 543.354 243.216 640.853 286.948 693.853C330.681 746.854 410.125 735.296 464.407 668.021C518.689 600.757 527.237 503.258 483.504 450.258Z" stroke="#1637C4" stroke-width="0.25" stroke-miterlimit="10"/>
<path d="M492.497 454.989C451.528 400.502 373.816 408.312 318.925 472.437C264.034 536.574 252.747 632.726 293.728 687.225C334.697 741.713 412.409 733.902 467.3 669.777C522.191 605.641 533.478 509.488 492.497 454.989Z" stroke="#1637C4" stroke-width="0.25" stroke-miterlimit="10"/>
<path d="M493.703 455.457C452.535 405.432 377.657 416.24 326.442 479.592C275.24 542.944 267.102 634.857 308.258 684.883C349.427 734.909 424.305 724.101 475.519 660.749C526.722 597.397 534.859 505.483 493.703 455.457Z" stroke="#1637C4" stroke-width="0.25" stroke-miterlimit="10"/>
<path d="M496.654 467.671C460.93 419.413 392.667 425.772 344.181 481.852C295.707 537.944 285.356 622.527 321.091 670.784C356.815 719.042 425.078 712.683 473.564 656.603C522.038 600.511 532.389 515.929 496.654 467.671Z" stroke="#1637C4" stroke-width="0.25" stroke-miterlimit="10"/>
<path d="M501.817 471.746C468.06 424.753 402.608 429.882 355.632 483.199C308.657 536.515 297.943 617.842 331.699 664.835C365.456 711.828 430.908 706.699 477.884 653.383C524.86 600.066 535.574 518.739 501.817 471.746Z" stroke="#1637C4" stroke-width="0.25" stroke-miterlimit="10"/>
<path d="M503.737 468.62C468.213 426.041 404.001 435.737 360.316 490.26C316.63 544.783 310.003 623.499 345.528 666.077C381.052 708.655 445.263 698.959 488.949 644.436C532.635 589.914 539.262 511.198 503.737 468.62Z" stroke="#1637C4" stroke-width="0.25" stroke-miterlimit="10"/>
<path d="M506.981 479.042C476.116 438.267 417.759 444.321 376.638 492.567C335.517 540.813 327.203 612.983 358.068 653.758C388.932 694.532 447.289 688.478 488.411 640.232C529.532 591.986 537.845 519.817 506.981 479.042Z" stroke="#1637C4" stroke-width="0.25" stroke-miterlimit="10"/>
<path d="M512.332 478.761C481.455 439.66 424.211 446.768 384.483 494.651C344.755 542.534 337.577 613.053 368.465 652.153C399.341 691.254 456.586 684.146 496.314 636.263C536.042 588.38 543.22 517.861 512.332 478.761Z" stroke="#1637C4" stroke-width="0.25" stroke-miterlimit="10"/>
<path d="M513.971 483.925C485.109 448.396 432.314 455.68 396.028 500.202C359.754 544.712 353.736 609.61 382.586 645.127C411.448 680.656 464.244 673.372 500.529 628.85C536.803 584.34 542.821 519.442 513.971 483.925Z" stroke="#1637C4" stroke-width="0.25" stroke-miterlimit="10"/>
<path d="M517.647 491.923C492.38 458.186 444.374 462.928 410.418 502.509C376.462 542.089 369.414 601.518 394.681 635.255C419.949 668.993 467.955 664.25 501.911 624.67C535.866 585.089 542.915 525.66 517.647 491.923Z" stroke="#1637C4" stroke-width="0.25" stroke-miterlimit="10"/>
<path d="M522.214 496.139C498.902 464.064 453.975 467.847 421.846 504.57C389.728 541.305 382.574 597.08 405.887 629.143C429.199 661.217 474.126 657.435 506.255 620.711C538.372 583.977 545.526 528.201 522.214 496.139Z" stroke="#1637C4" stroke-width="0.25" stroke-miterlimit="10"/>
<path d="M523.958 496.033C500.26 468.128 457.757 474.896 429.023 511.163C400.29 547.429 396.203 599.446 419.902 627.363C443.601 655.268 486.104 648.5 514.837 612.233C543.571 575.967 547.657 523.95 523.958 496.033Z" stroke="#1637C4" stroke-width="0.25" stroke-miterlimit="10"/>
<path d="M528.642 502.193C507.812 475.611 469.068 480.283 442.102 512.627C415.137 544.97 410.16 592.736 430.979 619.318C451.809 645.9 490.553 641.228 517.519 608.884C544.484 576.541 549.46 528.775 528.642 502.193Z" stroke="#1637C4" stroke-width="0.25" stroke-miterlimit="10"/>
<path d="M533.501 508.071C515.434 482.742 480.285 485.365 454.993 513.95C429.702 542.534 423.848 586.237 441.915 611.566C459.981 636.895 495.131 634.272 520.422 605.687C545.713 577.103 551.568 533.4 533.501 508.071Z" stroke="#1637C4" stroke-width="0.25" stroke-miterlimit="10"/>
<path d="M536.089 512.463C519.814 490.143 488.481 492.825 466.117 518.458C443.741 544.092 438.812 582.97 455.087 605.289C471.362 627.609 502.695 624.927 525.059 599.294C547.435 573.66 552.364 534.782 536.089 512.463Z" stroke="#1637C4" stroke-width="0.25" stroke-miterlimit="10"/>
<path d="M540.573 515.8C525.832 495.307 497.274 497.556 476.784 520.824C456.293 544.092 451.621 579.574 466.363 600.078C481.104 620.571 509.662 618.323 530.152 595.055C550.643 571.786 555.315 536.305 540.573 515.8Z" stroke="#1637C4" stroke-width="0.25" stroke-miterlimit="10"/>
<path d="M542.95 519.161C529.497 501.959 504.452 504.945 486.994 525.847C469.548 546.75 466.304 577.641 479.746 594.844C493.199 612.046 518.245 609.06 535.702 588.157C553.149 567.255 556.392 536.363 542.95 519.161Z" stroke="#1637C4" stroke-width="0.25" stroke-miterlimit="10"/>
<path d="M546.756 521.433C534.274 506.654 511.828 510.167 496.63 529.29C481.432 548.413 479.219 575.897 491.712 590.675C504.194 605.453 526.64 601.94 541.838 582.817C557.036 563.695 559.249 536.211 546.756 521.433Z" stroke="#1637C4" stroke-width="0.25" stroke-miterlimit="10"/>
<path d="M958.017 351.085C897.423 274.992 785.534 289.36 708.103 383.182C630.673 477.004 617.032 614.739 677.637 690.832C738.23 766.925 850.12 752.556 927.55 658.734C1004.98 564.913 1018.62 427.177 958.017 351.085Z" stroke="#1637C4" stroke-width="0.25" stroke-miterlimit="10"/>
<path d="M945.067 355.558C885.375 283.329 776.998 299.185 703.01 390.981C629.022 482.777 617.43 615.746 677.122 687.975C736.813 760.203 845.19 744.348 919.178 652.551C993.167 560.755 1004.76 427.786 945.067 355.558Z" stroke="#1637C4" stroke-width="0.25" stroke-miterlimit="10"/>
<path d="M930.758 360.628C872.074 293.131 767.912 310.919 698.104 400.361C628.296 489.792 619.28 617.011 677.965 684.508C736.649 752.006 840.811 734.218 910.619 644.776C980.427 555.345 989.443 428.126 930.758 360.628Z" stroke="#1637C4" stroke-width="0.25" stroke-miterlimit="10"/>
<path d="M928.405 373.603C875.891 301.527 774.762 310.146 702.542 392.855C630.322 475.564 614.339 601.05 666.865 673.138C719.379 745.214 820.508 736.595 892.728 653.886C964.948 571.177 980.931 445.691 928.405 373.603Z" stroke="#1637C4" stroke-width="0.25" stroke-miterlimit="10"/>
<path d="M907.235 374.997C853.164 312.898 757.245 329.339 692.999 411.732C628.753 494.113 620.51 611.25 674.581 673.349C728.652 735.448 824.571 719.007 888.817 636.614C953.064 554.233 961.307 437.096 907.235 374.997Z" stroke="#1637C4" stroke-width="0.25" stroke-miterlimit="10"/>
<path d="M906.826 383.124C856.934 315.696 761.578 324.538 693.842 402.879C626.106 481.22 611.646 599.387 661.537 666.814C711.429 734.242 806.785 725.401 874.521 647.059C942.256 568.718 956.717 450.551 906.826 383.124Z" stroke="#1637C4" stroke-width="0.25" stroke-miterlimit="10"/>
<path d="M895.866 389.002C847.778 323.87 755.782 332.313 690.376 407.856C624.971 483.398 610.943 597.42 659.032 662.552C707.12 727.684 799.116 719.241 864.521 643.699C929.927 568.156 943.954 454.134 895.866 389.002Z" stroke="#1637C4" stroke-width="0.25" stroke-miterlimit="10"/>
<path d="M881.851 396.005C835.694 335.159 748.534 344.304 687.144 416.416C625.767 488.527 613.426 596.307 659.57 657.154C705.726 718 792.887 708.854 854.276 636.743C915.654 564.631 927.995 456.851 881.851 396.005Z" stroke="#1637C4" stroke-width="0.25" stroke-miterlimit="10"/>
<path d="M869.533 396.731C822.639 339.784 737.364 352.127 679.065 424.285C620.767 496.443 611.529 601.097 658.423 658.044C705.317 714.99 790.592 702.648 848.89 630.489C907.188 558.331 916.427 453.677 869.533 396.731Z" stroke="#1637C4" stroke-width="0.25" stroke-miterlimit="10"/>
<path d="M861.735 406.134C818.67 348.836 736.989 357.033 679.276 424.449C621.563 491.853 609.691 592.947 652.756 650.245C695.821 707.543 777.502 699.345 835.214 631.93C892.927 564.526 904.8 463.432 861.735 406.134Z" stroke="#1637C4" stroke-width="0.25" stroke-miterlimit="10"/>
<path d="M850.483 408.781C807.699 354.41 728.266 364.141 673.059 430.538C617.852 496.923 607.782 594.82 650.566 649.202C693.35 703.573 772.783 693.842 827.99 627.445C883.197 561.06 893.267 463.163 850.483 408.781Z" stroke="#1637C4" stroke-width="0.25" stroke-miterlimit="10"/>
<path d="M836.573 411.638C793.824 361.998 717.623 374.657 666.373 439.918C615.123 505.179 608.239 598.322 650.988 647.961C693.736 697.601 769.938 684.942 821.187 619.681C872.437 554.42 879.321 461.277 836.573 411.638Z" stroke="#1637C4" stroke-width="0.25" stroke-miterlimit="10"/>
<path d="M826.105 417.786C785.346 370.078 712.447 381.906 663.259 444.204C614.081 506.514 607.255 595.699 648.002 643.406C688.76 691.113 761.66 679.286 810.848 616.988C860.025 554.678 866.852 465.493 826.105 417.786Z" stroke="#1637C4" stroke-width="0.25" stroke-miterlimit="10"/>
<path d="M818.166 425.151C780.288 377.444 710.246 386.344 661.736 445.035C613.227 503.715 604.609 589.961 642.487 637.656C680.365 685.363 750.407 676.464 798.917 617.772C847.427 559.093 856.044 472.847 818.166 425.151Z" stroke="#1637C4" stroke-width="0.25" stroke-miterlimit="10"/>
<path d="M807.956 431.381C772.139 385.419 705.328 393.288 658.739 448.97C612.149 504.652 603.415 587.056 639.232 633.019C675.049 678.981 741.86 671.112 788.449 615.43C835.039 559.748 843.773 477.344 807.956 431.381Z" stroke="#1637C4" stroke-width="0.25" stroke-miterlimit="10"/>
<path d="M800.732 438.115C767.584 391.742 703.162 396.626 656.842 449.04C610.522 501.443 599.843 581.529 632.991 627.902C666.139 674.274 730.561 669.391 776.881 616.976C823.201 564.573 833.879 484.487 800.732 438.115Z" stroke="#1637C4" stroke-width="0.25" stroke-miterlimit="10"/>
<path d="M789.409 444.649C758.322 400.747 697.624 405.069 653.833 454.322C610.042 503.563 599.75 579.082 630.837 622.983C661.924 666.885 722.622 662.564 766.413 613.311C810.204 564.069 820.496 488.55 789.409 444.649Z" stroke="#1637C4" stroke-width="0.25" stroke-miterlimit="10"/>
<path d="M780.019 442.705C747.328 400.993 686.524 408.347 644.208 459.111C601.892 509.875 594.094 584.843 626.785 626.543C659.477 668.255 720.28 660.901 762.596 610.137C804.912 559.374 812.71 484.405 780.019 442.705Z" stroke="#1637C4" stroke-width="0.25" stroke-miterlimit="10"/>
<path d="M766.378 452.846C737.118 414.776 682.192 420.877 643.693 466.477C605.194 512.088 597.701 579.925 626.961 617.995C656.221 656.064 711.148 649.963 749.646 604.364C788.145 558.753 795.639 490.916 766.378 452.846Z" stroke="#1637C4" stroke-width="0.25" stroke-miterlimit="10"/>
<path d="M755.383 455.13C726.264 419.835 673.363 427.529 637.218 472.32C601.073 517.112 595.382 582.033 624.49 617.316C653.61 652.61 706.511 644.916 742.656 600.125C778.801 555.334 784.492 490.412 755.383 455.13Z" stroke="#1637C4" stroke-width="0.25" stroke-miterlimit="10"/>
<path d="M748.417 461.289C721.744 425.479 670.916 430.362 634.9 472.191C598.883 514.02 591.319 576.962 617.992 612.772C644.665 648.582 695.493 643.699 731.509 601.87C767.526 560.041 775.089 497.099 748.417 461.289Z" stroke="#1637C4" stroke-width="0.25" stroke-miterlimit="10"/>
<path d="M735.912 465.036C709.86 432.868 662.134 439.391 629.314 479.592C596.483 519.793 590.992 578.461 617.044 610.629C643.096 642.797 690.821 636.274 723.641 596.073C756.472 555.872 761.964 497.204 735.912 465.036Z" stroke="#1637C4" stroke-width="0.25" stroke-miterlimit="10"/>
<path d="M727.353 472.238C704.017 440.539 659.313 444.567 627.5 481.243C595.687 517.92 588.802 573.344 612.138 605.043C635.473 636.743 680.178 632.714 711.991 596.038C743.804 559.362 750.688 503.938 727.353 472.238Z" stroke="#1637C4" stroke-width="0.25" stroke-miterlimit="10"/>
<path d="M718.161 477.812C696.722 447.213 654.641 450.012 624.186 484.042C593.731 518.083 586.413 570.475 607.852 601.062C629.291 631.661 671.373 628.862 701.827 594.832C732.282 560.791 739.6 508.399 718.161 477.812Z" stroke="#1637C4" stroke-width="0.25" stroke-miterlimit="10"/>
<path d="M703.607 479.897C681.77 454.591 642.873 461.09 616.739 494.429C590.605 527.756 587.128 575.288 608.965 600.593C630.802 625.899 669.698 619.4 695.832 586.061C721.967 552.734 725.444 505.202 703.607 479.897Z" stroke="#1637C4" stroke-width="0.25" stroke-miterlimit="10"/>
<path d="M696.43 486.63C677.274 460.879 640.742 464.381 614.854 494.429C588.966 524.477 583.51 569.714 602.677 595.464C621.833 621.215 658.364 617.714 684.252 587.665C710.141 557.617 715.597 512.381 696.43 486.63Z" stroke="#1637C4" stroke-width="0.25" stroke-miterlimit="10"/>
<path d="M683.21 490.951C664.851 469.275 631.879 474.486 609.573 502.591C587.268 530.695 584.06 571.06 602.419 592.736C620.779 614.411 653.751 609.2 676.056 581.096C698.362 552.992 701.57 512.627 683.21 490.951Z" stroke="#1637C4" stroke-width="0.25" stroke-miterlimit="10"/>
<path d="M674.827 498.27C659.266 476.922 629.303 479.487 607.911 503.996C586.519 528.506 581.788 565.685 597.349 587.033C612.911 608.381 642.873 605.816 664.265 581.307C685.657 556.797 690.388 519.617 674.827 498.27Z" stroke="#1637C4" stroke-width="0.25" stroke-miterlimit="10"/>
<path d="M661.982 501.619C646.819 484.206 619.912 488.82 601.904 511.924C583.884 535.028 581.578 567.875 596.741 585.3C611.903 602.713 638.81 598.099 656.819 574.995C674.838 551.891 677.145 519.044 661.982 501.619Z" stroke="#1637C4" stroke-width="0.25" stroke-miterlimit="10"/>
<path d="M652.393 507.556C639.232 491.478 615.241 494.886 598.801 515.156C582.362 535.426 579.704 564.889 592.865 580.967C606.026 597.045 630.017 593.638 646.456 573.367C662.895 553.097 665.553 523.634 652.393 507.556Z" stroke="#1637C4" stroke-width="0.25" stroke-miterlimit="10"/>
<path d="M642.007 513.669C630.837 499.464 610.077 502.005 595.663 519.348C581.238 536.691 578.604 562.266 589.786 576.47C600.956 590.675 621.716 588.134 636.129 570.791C650.554 553.448 653.189 527.873 642.007 513.669Z" stroke="#1637C4" stroke-width="0.25" stroke-miterlimit="10"/>
<path d="M631.855 518.774C622.231 506.408 604.269 508.516 591.741 523.482C579.213 538.447 576.859 560.603 586.484 572.969C596.108 585.335 614.07 583.227 626.598 568.262C639.127 553.296 641.48 531.14 631.855 518.774Z" stroke="#1637C4" stroke-width="0.25" stroke-miterlimit="10"/>
<path d="M733.816 765.894C646.023 648.792 479.289 665.327 361.381 802.816C243.485 940.306 219.084 1146.7 306.865 1263.79C394.646 1380.88 561.392 1364.35 679.3 1226.87C797.196 1089.38 821.597 882.984 733.816 765.894Z" stroke="#1637C4" stroke-width="0.25" stroke-miterlimit="10"/>
<path d="M725.737 767.897C644.501 655.374 487.38 668.056 374.8 796.247C262.219 924.438 236.811 1119.58 318.059 1232.1C399.295 1344.62 556.415 1331.94 668.996 1203.75C781.576 1075.56 806.984 880.42 725.737 767.897Z" stroke="#1637C4" stroke-width="0.25" stroke-miterlimit="10"/>
<path d="M716.159 747.849C631.106 643.745 475.882 665.585 369.461 796.657C263.039 927.717 245.71 1118.37 330.763 1222.47C415.816 1326.58 571.04 1304.74 677.461 1173.67C783.883 1042.61 801.212 851.952 716.159 747.849Z" stroke="#1637C4" stroke-width="0.25" stroke-miterlimit="10"/>
<path d="M712.834 737.532C629.256 636.251 477.416 658.348 373.687 786.914C269.959 915.468 253.625 1101.8 337.203 1203.08C420.78 1304.36 572.62 1282.27 676.349 1153.7C780.078 1025.15 796.411 838.814 712.834 737.532Z" stroke="#1637C4" stroke-width="0.25" stroke-miterlimit="10"/>
<path d="M708.782 735.19C630.251 636.227 485.015 654.612 384.389 776.281C283.752 897.938 265.837 1076.79 344.357 1175.76C422.888 1274.73 568.124 1256.34 668.75 1134.67C769.387 1013.01 787.302 834.165 708.782 735.19Z" stroke="#1637C4" stroke-width="0.25" stroke-miterlimit="10"/>
<path d="M709.579 737.275C638.764 636.708 500.119 646.216 399.915 758.529C299.711 870.841 275.884 1043.41 346.699 1143.98C417.514 1244.55 556.158 1235.04 656.362 1122.73C756.566 1010.41 780.394 837.842 709.579 737.275Z" stroke="#1637C4" stroke-width="0.25" stroke-miterlimit="10"/>
<path d="M701.722 723.585C630.251 629.412 495.295 643.593 400.278 755.261C305.261 866.93 286.187 1033.79 357.658 1127.96C429.129 1222.13 564.085 1207.95 659.102 1096.29C754.119 984.617 773.193 817.759 701.722 723.585Z" stroke="#1637C4" stroke-width="0.25" stroke-miterlimit="10"/>
<path d="M685.47 717.262C615.674 634.412 490.038 653.968 404.868 760.929C319.698 867.89 307.24 1021.76 377.036 1104.61C446.832 1187.46 572.468 1167.9 657.638 1060.94C742.808 953.983 755.266 800.111 685.47 717.262Z" stroke="#1637C4" stroke-width="0.25" stroke-miterlimit="10"/>
<path d="M681.419 707.648C613.32 628.042 491.595 647.879 409.516 751.947C327.437 856.016 316.103 1004.92 384.202 1084.53C452.3 1164.13 574.025 1144.3 656.104 1040.23C738.183 936.16 749.517 787.254 681.419 707.648Z" stroke="#1637C4" stroke-width="0.25" stroke-miterlimit="10"/>
<path d="M677.965 698.163C611.704 621.367 493.703 641.087 414.387 742.205C335.083 843.322 324.499 987.545 390.759 1064.34C457.019 1141.14 575.021 1121.42 654.336 1020.3C733.64 919.181 744.225 774.958 677.965 698.163Z" stroke="#1637C4" stroke-width="0.25" stroke-miterlimit="10"/>
<path d="M678.117 694.427C616.81 617.21 503.445 631.602 424.914 726.572C346.382 821.553 332.425 961.138 393.733 1038.36C455.04 1115.57 568.405 1101.18 646.936 1006.21C725.468 911.229 739.424 771.644 678.117 694.427Z" stroke="#1637C4" stroke-width="0.25" stroke-miterlimit="10"/>
<path d="M672.426 693.642C616.681 619.681 511.079 630.431 436.552 717.648C362.025 804.866 346.792 935.516 402.538 1009.47C458.284 1083.43 563.886 1072.68 638.412 985.46C712.939 898.243 728.172 767.592 672.426 693.642Z" stroke="#1637C4" stroke-width="0.25" stroke-miterlimit="10"/>
<path d="M667.895 678.677C611.318 608.978 507.765 623.241 436.611 710.529C365.444 797.816 353.63 925.071 410.207 994.758C466.784 1064.46 570.337 1050.19 641.492 962.906C712.658 875.619 724.472 748.364 667.895 678.677Z" stroke="#1637C4" stroke-width="0.25" stroke-miterlimit="10"/>
<path d="M657.966 678.431C606.67 614.88 512.542 627.574 447.722 706.793C382.902 786.012 371.931 901.744 423.227 965.295C474.524 1028.85 568.651 1016.15 633.471 936.933C698.291 857.714 709.262 741.982 657.966 678.431Z" stroke="#1637C4" stroke-width="0.25" stroke-miterlimit="10"/>
<path d="M654.278 672.986C606.646 611.905 517.846 622.398 455.93 696.43C394.014 770.461 382.422 879.987 430.054 941.079C477.685 1002.16 566.485 991.667 628.401 917.635C690.318 843.603 701.909 734.078 654.278 672.986Z" stroke="#1637C4" stroke-width="0.25" stroke-miterlimit="10"/>
<path d="M650.613 667.189C606.506 608.591 522.881 617.046 463.845 686.078C404.809 755.109 392.714 858.569 436.821 917.155C480.929 975.752 564.553 967.298 623.589 898.266C682.625 829.235 694.72 725.775 650.613 667.189Z" stroke="#1637C4" stroke-width="0.25" stroke-miterlimit="10"/>
<path d="M643.049 657.926C600.359 604.973 521.968 615.512 467.979 681.464C413.977 747.416 404.821 843.802 447.512 896.744C490.202 949.697 568.593 939.158 622.582 873.206C676.583 807.255 685.739 710.868 643.049 657.926Z" stroke="#1637C4" stroke-width="0.25" stroke-miterlimit="10"/>
<path d="M639.209 651.755C599.832 601.46 526.558 610.278 475.543 671.428C424.527 732.591 415.09 822.935 454.467 873.218C493.843 923.513 567.117 914.696 618.133 853.545C669.148 792.383 678.585 702.039 639.209 651.755Z" stroke="#1637C4" stroke-width="0.25" stroke-miterlimit="10"/>
<path d="M635.134 647.13C599.762 599.469 532.248 605.828 484.348 661.334C436.447 716.84 426.283 800.486 461.656 848.147C497.028 895.807 564.541 889.448 612.442 833.942C660.343 778.436 670.506 694.79 635.134 647.13Z" stroke="#1637C4" stroke-width="0.25" stroke-miterlimit="10"/>
<path d="M630.322 639.752C597.584 595.581 535.058 601.436 490.682 652.821C446.294 704.205 436.856 781.68 469.594 825.839C502.332 870.009 564.857 864.154 609.234 812.77C653.622 761.386 663.059 683.911 630.322 639.752Z" stroke="#1637C4" stroke-width="0.25" stroke-miterlimit="10"/>
<path d="M623.331 628.756C591.284 590.054 533.15 598.614 493.492 647.879C453.834 697.144 447.652 768.459 479.699 807.161C511.746 845.863 569.881 837.303 609.538 788.038C649.196 738.774 655.378 667.459 623.331 628.756Z" stroke="#1637C4" stroke-width="0.25" stroke-miterlimit="10"/>
<path d="M622.851 621.531C594.059 583.274 539.473 588.801 500.939 633.85C462.405 678.911 454.502 746.444 483.294 784.689C512.086 822.946 566.672 817.419 605.206 772.37C643.74 727.309 651.643 659.777 622.851 621.531Z" stroke="#1637C4" stroke-width="0.25" stroke-miterlimit="10"/>
<path d="M615.99 614.458C589.715 581.084 540.948 587.08 507.063 627.843C473.177 668.606 467.007 728.714 493.281 762.077C519.556 795.451 568.323 789.455 602.209 748.692C636.094 707.929 642.265 647.821 615.99 614.458Z" stroke="#1637C4" stroke-width="0.25" stroke-miterlimit="10"/>
<path d="M607.876 607.748C584.13 580.077 541.733 587.045 513.186 623.323C484.64 659.589 480.741 711.43 504.487 739.101C528.232 766.772 570.63 759.805 599.176 723.527C627.722 687.26 631.621 635.419 607.876 607.748Z" stroke="#1637C4" stroke-width="0.25" stroke-miterlimit="10"/>
<path d="M605.148 602.139C585.114 576.283 547.657 580.604 521.476 611.777C495.295 642.949 490.319 689.181 510.353 715.025C530.387 740.881 567.843 736.56 594.024 705.388C620.205 674.215 625.181 627.983 605.148 602.139Z" stroke="#1637C4" stroke-width="0.25" stroke-miterlimit="10"/>
<path d="M599.129 595.031C581.706 573.473 549.753 577.805 527.764 604.704C505.775 631.602 502.063 670.89 519.486 692.448C536.908 714.006 568.862 709.674 590.851 682.775C612.84 655.877 616.552 616.589 599.129 595.031Z" stroke="#1637C4" stroke-width="0.25" stroke-miterlimit="10"/>
<path d="M594.633 588.122C580.102 569.772 553.207 573.145 534.555 595.663C515.903 618.182 512.554 651.31 527.085 669.66C541.616 688.01 568.511 684.637 587.163 662.119C605.815 639.6 609.164 606.472 594.633 588.122Z" stroke="#1637C4" stroke-width="0.25" stroke-miterlimit="10"/>
</g>
<defs>
<clipPath id="clip0_402_49307">
<rect width="996" height="1660" fill="white" transform="translate(0 -318)"/>
</clipPath>
</defs>
</svg>
