<svg viewBox="0 0 131 131" fill="none" xmlns="http://www.w3.org/2000/svg">
<g id="camera-foto-outline">
<g id="Vector">
<path d="M65.4987 90.9896C60.6778 90.9896 55.9651 89.6441 51.9567 87.1233C47.9482 84.6025 44.824 81.0196 42.9791 76.8276C41.1342 72.6357 40.6515 68.0229 41.5921 63.5728C42.5326 59.1227 44.8541 55.0349 48.263 51.8266C51.6719 48.6182 56.0151 46.4332 60.7434 45.5481C65.4717 44.6629 70.3727 45.1172 74.8266 46.8535C79.2806 48.5899 83.0874 51.5303 85.7658 55.303C88.4441 59.0756 89.8737 63.5111 89.8737 68.0484C89.8665 74.1307 87.2962 79.962 82.7265 84.2628C78.1569 88.5636 71.9611 90.9828 65.4987 90.9896ZM65.4987 55.3033C62.8204 55.3033 60.2023 56.0508 57.9753 57.4513C55.7484 58.8517 54.0128 60.8422 52.9878 63.1711C51.9629 65.4999 51.6947 68.0625 52.2172 70.5348C52.7397 73.0072 54.0295 75.2781 55.9233 77.0605C57.8171 78.843 60.23 80.0568 62.8568 80.5486C65.4837 81.0404 68.2065 80.788 70.6809 79.8233C73.1553 78.8587 75.2702 77.2251 76.7582 75.1292C78.2462 73.0333 79.0404 70.5691 79.0404 68.0484C79.0404 64.6682 77.6137 61.4264 75.0741 59.0363C72.5345 56.6461 69.0902 55.3033 65.4987 55.3033Z" fill="currentColor"/>
<path d="M108.832 108.833H22.1654C19.2922 108.833 16.5367 107.758 14.505 105.846C12.4734 103.934 11.332 101.341 11.332 98.6366V47.6563C11.332 43.6 13.0441 39.7099 16.0915 36.8417C19.139 33.9735 23.2723 32.3622 27.582 32.3622H35.0679L35.9941 30.6186C37.3359 28.0728 39.4085 25.9315 41.9771 24.4376C44.5457 22.9437 47.5076 22.1568 50.527 22.1661H80.4704C83.4897 22.1574 86.4513 22.9445 89.0198 24.4384C91.5883 25.9322 93.661 28.0731 95.0033 30.6186L95.9295 32.3622H103.415C107.725 32.3622 111.858 33.9735 114.906 36.8417C117.953 39.7099 119.665 43.6 119.665 47.6563V98.6366C119.665 101.341 118.524 103.934 116.492 105.846C114.461 107.758 111.705 108.833 108.832 108.833ZM27.582 42.5582C26.1454 42.5582 24.7677 43.0954 23.7519 44.0514C22.736 45.0075 22.1654 46.3042 22.1654 47.6563V98.6366H108.832V47.6563C108.832 46.3042 108.261 45.0075 107.246 44.0514C106.23 43.0954 104.852 42.5582 103.415 42.5582H92.582C91.5754 42.5587 90.5886 42.2951 89.7323 41.7972C88.876 41.2992 88.1841 40.5865 87.7341 39.739L85.3129 35.1814C84.8668 34.3321 84.1766 33.6176 83.3205 33.1192C82.4644 32.6208 81.477 32.3585 80.4704 32.3622H50.527C49.5206 32.3591 48.5334 32.6217 47.6774 33.12C46.8215 33.6183 46.1311 34.3324 45.6845 35.1814L43.2904 39.739C42.8384 40.5904 42.1422 41.3056 41.2806 41.8039C40.4191 42.3021 39.4265 42.5634 38.4154 42.5582H27.582Z" fill="currentColor"/>
</g>
</g>
</svg>
