<svg width="28" height="24" viewBox="0 0 28 24" fill="none" xmlns="http://www.w3.org/2000/svg">
<path d="M13.9997 8.33331V13M13.9997 17.6666H14.0113M12.0047 2.33664L2.12299 18.8333C1.91925 19.1861 1.81145 19.5862 1.81031 19.9936C1.80917 20.401 1.91473 20.8016 2.11649 21.1556C2.31825 21.5095 2.60917 21.8045 2.96032 22.0111C3.31146 22.2178 3.71059 22.3288 4.11799 22.3333H23.8813C24.2887 22.3288 24.6879 22.2178 25.039 22.0111C25.3901 21.8045 25.6811 21.5095 25.8828 21.1556C26.0846 20.8016 26.1901 20.401 26.189 19.9936C26.1879 19.5862 26.0801 19.1861 25.8763 18.8333L15.9947 2.33664C15.7867 1.99377 15.4938 1.71028 15.1444 1.51354C14.7949 1.3168 14.4007 1.21344 13.9997 1.21344C13.5986 1.21344 13.2044 1.3168 12.8549 1.51354C12.5055 1.71028 12.2126 1.99377 12.0047 2.33664Z" stroke="#D92D20" stroke-width="2" stroke-linecap="round" stroke-linejoin="round"/>
</svg>
