<svg width="16" height="19" viewBox="0 0 16 19" fill="none" xmlns="http://www.w3.org/2000/svg">
<path d="M6.33337 15.6667C6.33337 16.1087 6.50897 16.5326 6.82153 16.8452C7.13409 17.1577 7.55801 17.3333 8.00004 17.3333C8.44207 17.3333 8.86599 17.1577 9.17855 16.8452C9.49111 16.5326 9.66671 16.1087 9.66671 15.6667M6.33337 15.6667C6.33337 15.2246 6.50897 14.8007 6.82153 14.4882C7.13409 14.1756 7.55801 14 8.00004 14C8.44207 14 8.86599 14.1756 9.17855 14.4882C9.49111 14.8007 9.66671 15.2246 9.66671 15.6667M6.33337 15.6667H1.33337M9.66671 15.6667H14.6667M5.50004 4H10.5M5.50004 6.5H8.00004M8.00004 11.5L6.33337 9.83333H3.83337C3.61236 9.83333 3.4004 9.74554 3.24412 9.58926C3.08784 9.43298 3.00004 9.22101 3.00004 9V2.33333C3.00004 2.11232 3.08784 1.90036 3.24412 1.74408C3.4004 1.5878 3.61236 1.5 3.83337 1.5H12.1667C12.3877 1.5 12.5997 1.5878 12.756 1.74408C12.9122 1.90036 13 2.11232 13 2.33333V9C13 9.22101 12.9122 9.43298 12.756 9.58926C12.5997 9.74554 12.3877 9.83333 12.1667 9.83333H9.66671L8.00004 11.5Z" stroke="currentColor" stroke-width="1.5" stroke-linecap="round" stroke-linejoin="round"/>
</svg>
