<svg width="21" height="20" viewBox="0 0 21 20" fill="none" xmlns="http://www.w3.org/2000/svg">
<g clip-path="url(#clip0_267_289)">
<path d="M4.1194 4.10834L7.65273 7.64167M12.3694 12.3583L15.9027 15.8917M15.9027 4.10834L12.3694 7.64167L15.3111 4.70001M4.1194 15.8917L7.65273 12.3583M18.3444 10C18.3444 14.6024 14.6134 18.3333 10.0111 18.3333C5.40869 18.3333 1.67773 14.6024 1.67773 10C1.67773 5.39763 5.40869 1.66667 10.0111 1.66667C14.6134 1.66667 18.3444 5.39763 18.3444 10ZM13.3444 10C13.3444 11.841 11.852 13.3333 10.0111 13.3333C8.17012 13.3333 6.67773 11.841 6.67773 10C6.67773 8.15906 8.17012 6.66667 10.0111 6.66667C11.852 6.66667 13.3444 8.15906 13.3444 10Z" stroke="white" stroke-width="1.5" stroke-linecap="round" stroke-linejoin="round"/>
</g>
<defs>
<clipPath id="clip0_267_289">
<rect width="20" height="20" fill="white" transform="translate(0.0111084)"/>
</clipPath>
</defs>
</svg>
