<svg width="18" height="16" viewBox="0 0 18 16" fill="none" xmlns="http://www.w3.org/2000/svg">
<path d="M11.5 4.66668H13.1667M11.5 8.00001H13.1667M4.83333 11.3333H13.1667M1.5 3.83334C1.5 3.1703 1.76339 2.53442 2.23223 2.06558C2.70107 1.59674 3.33696 1.33334 4 1.33334H14C14.663 1.33334 15.2989 1.59674 15.7678 2.06558C16.2366 2.53442 16.5 3.1703 16.5 3.83334V12.1667C16.5 12.8297 16.2366 13.4656 15.7678 13.9344C15.2989 14.4033 14.663 14.6667 14 14.6667H4C3.33696 14.6667 2.70107 14.4033 2.23223 13.9344C1.76339 13.4656 1.5 12.8297 1.5 12.1667V3.83334ZM4.83333 6.33334C4.83333 6.77537 5.00893 7.19929 5.32149 7.51185C5.63405 7.82442 6.05797 8.00001 6.5 8.00001C6.94203 8.00001 7.36595 7.82442 7.67851 7.51185C7.99107 7.19929 8.16667 6.77537 8.16667 6.33334C8.16667 5.89132 7.99107 5.46739 7.67851 5.15483C7.36595 4.84227 6.94203 4.66668 6.5 4.66668C6.05797 4.66668 5.63405 4.84227 5.32149 5.15483C5.00893 5.46739 4.83333 5.89132 4.83333 6.33334Z" stroke="currentColor" stroke-width="1.5" stroke-linecap="round" stroke-linejoin="round"/>
</svg>
