<svg width="18" height="18" viewBox="0 0 18 18" fill="none" xmlns="http://www.w3.org/2000/svg">
<path d="M3.27075 3.27093L6.55675 6.55693M10.9432 10.9434L14.2292 14.2294M14.2292 3.27093L10.9432 6.55693L13.679 3.82118M3.27075 14.2294L6.55675 10.9434M16.5 8.75018C16.5 13.0304 13.0302 16.5002 8.75 16.5002C4.46979 16.5002 1 13.0304 1 8.75018C1 4.46998 4.46979 1.00018 8.75 1.00018C13.0302 1.00018 16.5 4.46998 16.5 8.75018ZM11.85 8.75018C11.85 10.4623 10.4621 11.8502 8.75 11.8502C7.03792 11.8502 5.65 10.4623 5.65 8.75018C5.65 7.0381 7.03792 5.65018 8.75 5.65018C10.4621 5.65018 11.85 7.0381 11.85 8.75018Z" stroke="currentColor" stroke-width="1.5" stroke-linecap="round" stroke-linejoin="round"/>
</svg>
