<svg width="18" height="18" viewBox="0 0 18 18" fill="none" xmlns="http://www.w3.org/2000/svg">
<path d="M1.5 16.5V14.8333C1.5 13.9493 1.85119 13.1014 2.47631 12.4763C3.10143 11.8512 3.94928 11.5 4.83333 11.5H8.16667C9.05072 11.5 9.89857 11.8512 10.5237 12.4763C11.1488 13.1014 11.5 13.9493 11.5 14.8333V16.5M12.3333 1.60834C13.0503 1.79192 13.6859 2.20892 14.1397 2.7936C14.5935 3.37827 14.8399 4.09736 14.8399 4.8375C14.8399 5.57765 14.5935 6.29674 14.1397 6.88141C13.6859 7.46609 13.0503 7.88309 12.3333 8.06667M16.5 16.5V14.8333C16.4958 14.0976 16.2483 13.384 15.7961 12.8037C15.3439 12.2233 14.7124 11.8089 14 11.625M3.16667 4.83333C3.16667 5.71739 3.51786 6.56523 4.14298 7.19036C4.7681 7.81548 5.61594 8.16667 6.5 8.16667C7.38405 8.16667 8.2319 7.81548 8.85702 7.19036C9.48214 6.56523 9.83333 5.71739 9.83333 4.83333C9.83333 3.94928 9.48214 3.10143 8.85702 2.47631C8.2319 1.85119 7.38405 1.5 6.5 1.5C5.61594 1.5 4.7681 1.85119 4.14298 2.47631C3.51786 3.10143 3.16667 3.94928 3.16667 4.83333Z" stroke="currentColor" stroke-width="1.5" stroke-linecap="round" stroke-linejoin="round"/>
</svg>
