<svg width="19" height="20" viewBox="0 0 19 20" fill="none" xmlns="http://www.w3.org/2000/svg">
<path d="M18.0832 10C18.0832 14.6024 14.3522 18.3334 9.74984 18.3334M18.0832 10C18.0832 5.39765 14.3522 1.66669 9.74984 1.66669M18.0832 10H1.4165M9.74984 18.3334C5.14746 18.3334 1.4165 14.6024 1.4165 10M9.74984 18.3334C11.8342 16.0514 13.0188 13.09 13.0832 10C13.0188 6.91005 11.8342 3.94865 9.74984 1.66669M9.74984 18.3334C7.66544 16.0514 6.48088 13.09 6.4165 10C6.48088 6.91005 7.66544 3.94865 9.74984 1.66669M1.4165 10C1.4165 5.39765 5.14746 1.66669 9.74984 1.66669" stroke="#1637C4" stroke-width="1.66667" stroke-linecap="round" stroke-linejoin="round"/>
</svg>
